<svg width="1105" height="680" viewBox="0 0 1105 680" fill="none" xmlns="http://www.w3.org/2000/svg">
<rect width="633" height="341" fill="#EFEBE2"/>
<rect y="341" width="633" height="175" fill="#CC1417"/>
<rect y="516" width="633" height="84" fill="#FFFFF8"/>
<rect y="600" width="633" height="80" fill="#1A1A1A"/>
<rect x="633" width="291" height="144" fill="#6D8198"/>
<rect x="633" y="144" width="291" height="128" fill="#E87000"/>
<rect x="633" y="272" width="291" height="138" fill="#A36890"/>
<rect x="633" y="410" width="291" height="135" fill="#397E67"/>
<rect x="633" y="545" width="291" height="135" fill="#2C98DA"/>
<rect x="924" width="89" height="144" fill="#4A5568"/>
<rect x="924" y="144" width="89" height="128" fill="#B45309"/>
<rect x="924" y="272" width="89" height="138" fill="#6B3F5E"/>
<rect x="924" y="410" width="89" height="135" fill="#2D4A3E"/>
<rect x="924" y="545" width="89" height="135" fill="#317BB8"/>
<rect x="1013" width="92" height="144" fill="#C8CDD6"/>
<rect x="1013" y="144" width="92" height="128" fill="#F2C9A8"/>
<rect x="1013" y="272" width="92" height="138" fill="#DEC4D4"/>
<rect x="1013" y="410" width="92" height="135" fill="#B0C4BC"/>
<rect x="1013" y="545" width="92" height="135" fill="#A8CDE8"/>
</svg>
