<svg width="390" height="232" viewBox="0 0 390 232" fill="none" xmlns="http://www.w3.org/2000/svg">
<g clip-path="url(#clip0_2591_2063)">
<path d="M134.385 18.0395V109.633L195.749 171.605L257.113 109.633V18.0395C257.113 18.0395 200.131 -22.5472 134.385 18.0395Z" fill="black"/>
<path d="M134.385 109.633L163.976 80.012L194.658 109.633L257.122 49.2988V109.633L195.758 171.605L134.393 109.633H134.385Z" fill="#CC1517"/>
<path d="M224.526 80.7748L194.649 109.633L163.967 80.012L193.87 50.079L224.526 80.7662V80.7748Z" fill="white"/>
<path d="M22.213 203.107C21.1565 202.249 20.1 201.608 19.0434 201.2C17.9869 200.784 16.9564 200.576 15.9692 200.576C14.7135 200.576 13.6916 200.871 12.8949 201.469C12.0982 202.067 11.7085 202.839 11.7085 203.801C11.7085 204.46 11.9077 205.006 12.306 205.439C12.7044 205.873 13.224 206.245 13.8648 206.557C14.5056 206.869 15.2331 207.147 16.0471 207.372C16.8611 207.606 17.6579 207.849 18.4546 208.118C21.6241 209.175 23.9536 210.588 25.4258 212.365C26.898 214.134 27.6341 216.448 27.6341 219.292C27.6341 221.207 27.3137 222.95 26.6642 224.502C26.0234 226.053 25.0794 227.388 23.841 228.498C22.6027 229.607 21.0785 230.466 19.2773 231.081C17.476 231.697 15.4323 232 13.1547 232C8.42637 232 4.04445 230.596 0.0175781 227.778L4.183 219.933C5.63787 221.225 7.07542 222.187 8.49565 222.811C9.91588 223.444 11.3188 223.756 12.713 223.756C14.2978 223.756 15.4842 223.392 16.2549 222.664C17.0343 221.936 17.424 221.112 17.424 220.185C17.424 219.621 17.3288 219.136 17.1296 218.72C16.9304 218.303 16.6013 217.922 16.1337 217.575C15.6661 217.229 15.0685 216.908 14.3238 216.604C13.579 216.31 12.6784 215.98 11.6219 215.608C10.3662 215.209 9.13649 214.775 7.92409 214.29C6.72036 213.813 5.64653 213.172 4.7026 212.383C3.75867 211.585 2.99659 210.588 2.42504 209.383C1.84482 208.178 1.55905 206.644 1.55905 204.789C1.55905 202.934 1.86214 201.261 2.477 199.752C3.09185 198.244 3.94919 196.953 5.05766 195.878C6.16613 194.803 7.51708 193.97 9.12783 193.372C10.7299 192.774 12.5225 192.479 14.5056 192.479C16.3589 192.479 18.29 192.74 20.3078 193.251C22.3256 193.762 24.2567 194.517 26.11 195.514L22.239 203.107H22.213Z" fill="#CC1517"/>
<path d="M61.6074 206.037C59.3558 203.289 56.5846 201.92 53.2765 201.92C51.8217 201.92 50.4707 202.188 49.2324 202.717C47.994 203.246 46.9288 203.965 46.0368 204.876C45.1449 205.786 44.4434 206.869 43.9325 208.126C43.4215 209.383 43.1617 210.744 43.1617 212.201C43.1617 213.657 43.4215 215.061 43.9325 216.318C44.4434 217.575 45.1535 218.668 46.0628 219.595C46.9721 220.523 48.0373 221.251 49.2583 221.78C50.4794 222.308 51.8044 222.577 53.2246 222.577C56.3335 222.577 59.122 221.251 61.6074 218.607V230.128L60.6115 230.474C59.122 231.003 57.7364 231.393 56.4461 231.645C55.1558 231.896 53.8827 232.017 52.6271 232.017C50.0464 232.017 47.5783 231.532 45.2141 230.552C42.85 229.573 40.7716 228.203 38.9617 226.435C37.1604 224.666 35.7142 222.56 34.6231 220.133C33.5319 217.697 32.9863 215.044 32.9863 212.166C32.9863 209.288 33.5232 206.644 34.5971 204.252C35.6709 201.85 37.1085 199.787 38.9097 198.045C40.711 196.311 42.8067 194.95 45.1795 193.97C47.561 192.991 50.0551 192.505 52.6704 192.505C54.1599 192.505 55.6234 192.662 57.0609 192.974C58.4985 193.286 60.014 193.78 61.5987 194.439V206.055L61.6074 206.037Z" fill="#CC1517"/>
<path d="M89.9423 217.055L85.5777 204.598L81.2131 217.055H89.9423ZM92.5143 224.45H78.6324L76.3982 230.951H66.0322L80.2605 193.52H90.8689L105.097 230.951H94.7312L92.497 224.45H92.5143Z" fill="#CC1517"/>
<path d="M109.245 230.96L115.593 193.528H125.214L132.705 213.484L140.144 193.528H149.765L156.113 230.96H146.44L143.218 209.418L134.394 230.96H130.523L122.14 209.418L118.918 230.96H109.245Z" fill="#CC1517"/>
<path d="M183.669 217.055L179.304 204.598L174.94 217.055H183.669ZM186.241 224.45H172.359L170.125 230.951H159.759L173.987 193.52H184.595L198.824 230.951H188.458L186.224 224.45H186.241Z" fill="black"/>
<path d="M212.939 222.716H215.173C216.862 222.716 218.36 222.456 219.685 221.918C221.01 221.39 222.127 220.661 223.036 219.734C223.946 218.806 224.639 217.705 225.115 216.431C225.591 215.157 225.834 213.761 225.834 212.235C225.834 210.71 225.582 209.357 225.089 208.066C224.595 206.774 223.894 205.665 222.984 204.737C222.075 203.809 220.958 203.081 219.633 202.552C218.308 202.024 216.819 201.755 215.173 201.755H212.939V222.707V222.716ZM203.214 193.528H217.598C220.144 193.528 222.534 194.04 224.76 195.071C226.994 196.094 228.943 197.464 230.614 199.163C232.285 200.871 233.593 202.856 234.554 205.118C235.515 207.39 235.992 209.756 235.992 212.244C235.992 214.732 235.524 217.055 234.58 219.318C233.636 221.589 232.329 223.583 230.666 225.299C228.994 227.024 227.046 228.394 224.812 229.417C222.577 230.44 220.179 230.96 217.598 230.96H203.214V193.528Z" fill="black"/>
<path d="M246.263 193.528L255.286 216.31L264.362 193.528H274.927L259.157 230.96H251.424L235.706 193.528H246.271H246.263Z" fill="black"/>
<path d="M288.887 230.96H279.171V193.528H288.887V230.96Z" fill="black"/>
<path d="M317.387 203.107C316.33 202.249 315.274 201.608 314.217 201.2C313.161 200.784 312.13 200.576 311.143 200.576C309.887 200.576 308.865 200.871 308.069 201.469C307.272 202.067 306.882 202.839 306.882 203.801C306.882 204.46 307.081 205.006 307.48 205.439C307.878 205.873 308.398 206.245 309.039 206.557C309.679 206.869 310.407 207.147 311.221 207.372C312.035 207.606 312.832 207.849 313.628 208.118C316.798 209.175 319.127 210.588 320.6 212.365C322.072 214.134 322.808 216.448 322.808 219.292C322.808 221.207 322.488 222.95 321.838 224.502C321.197 226.053 320.253 227.388 319.015 228.498C317.777 229.607 316.252 230.466 314.451 231.081C312.65 231.697 310.606 232 308.329 232C303.6 232 299.218 230.596 295.191 227.778L299.357 219.933C300.812 221.225 302.249 222.187 303.669 222.811C305.09 223.444 306.493 223.756 307.887 223.756C309.472 223.756 310.658 223.392 311.429 222.664C312.208 221.936 312.598 221.112 312.598 220.185C312.598 219.621 312.503 219.136 312.303 218.72C312.104 218.303 311.775 217.922 311.308 217.575C310.84 217.229 310.242 216.908 309.498 216.604C308.753 216.31 307.852 215.98 306.796 215.608C305.54 215.209 304.31 214.775 303.098 214.29C301.894 213.813 300.82 213.172 299.876 212.383C298.932 211.585 298.17 210.588 297.599 209.383C297.019 208.178 296.733 206.644 296.733 204.789C296.733 202.934 297.036 201.261 297.651 199.752C298.266 198.244 299.123 196.953 300.231 195.878C301.34 194.803 302.691 193.97 304.302 193.372C305.904 192.774 307.696 192.479 309.679 192.479C311.533 192.479 313.464 192.74 315.482 193.251C317.499 193.762 319.431 194.517 321.284 195.514L317.413 203.107H317.387Z" fill="black"/>
<path d="M350.961 201.764H339.409V208.022H350.32V216.266H339.409V222.716H350.961V230.96H329.684V193.528H350.961V201.772V201.764Z" fill="black"/>
<path d="M368.628 210.259H370.463C372.377 210.259 373.85 209.86 374.88 209.071C375.902 208.274 376.422 207.138 376.422 205.647C376.422 204.156 375.911 203.012 374.88 202.223C373.858 201.426 372.386 201.035 370.463 201.035H368.628V210.268V210.259ZM390 230.951H377.902L368.628 216.552V230.951H358.911V193.52H374.04C376.127 193.52 377.937 193.823 379.496 194.439C381.046 195.054 382.328 195.886 383.341 196.944C384.345 198.001 385.107 199.224 385.618 200.619C386.129 202.006 386.389 203.497 386.389 205.084C386.389 207.927 385.705 210.242 384.328 212.01C382.96 213.778 380.933 214.983 378.257 215.608L390.009 230.942L390 230.951Z" fill="black"/>
<path d="M134.385 18.0395V109.633L195.749 171.605L257.113 109.633V18.0395C257.113 18.0395 200.131 -22.5472 134.385 18.0395Z" fill="black"/>
<path d="M134.385 109.633L163.976 80.012L194.658 109.633L257.122 49.2988V109.633L195.758 171.605L134.393 109.633H134.385Z" fill="#CC1517"/>
<path d="M224.526 80.7748L194.649 109.633L163.967 80.012L193.87 50.079L224.526 80.7662V80.7748Z" fill="white"/>
<path d="M22.213 203.107C21.1565 202.249 20.1 201.608 19.0434 201.2C17.9869 200.784 16.9564 200.576 15.9692 200.576C14.7135 200.576 13.6916 200.871 12.8949 201.469C12.0982 202.067 11.7085 202.839 11.7085 203.801C11.7085 204.46 11.9077 205.006 12.306 205.439C12.7044 205.873 13.224 206.245 13.8648 206.557C14.5056 206.869 15.2331 207.147 16.0471 207.372C16.8611 207.606 17.6579 207.849 18.4546 208.118C21.6241 209.175 23.9536 210.588 25.4258 212.365C26.898 214.134 27.6341 216.448 27.6341 219.292C27.6341 221.207 27.3137 222.95 26.6642 224.502C26.0234 226.053 25.0794 227.388 23.841 228.498C22.6027 229.607 21.0785 230.466 19.2773 231.081C17.476 231.697 15.4323 232 13.1547 232C8.42637 232 4.04445 230.596 0.0175781 227.778L4.183 219.933C5.63787 221.225 7.07542 222.187 8.49565 222.811C9.91588 223.444 11.3188 223.756 12.713 223.756C14.2978 223.756 15.4842 223.392 16.2549 222.664C17.0343 221.936 17.424 221.112 17.424 220.185C17.424 219.621 17.3288 219.136 17.1296 218.72C16.9304 218.303 16.6013 217.922 16.1337 217.575C15.6661 217.229 15.0685 216.908 14.3238 216.604C13.579 216.31 12.6784 215.98 11.6219 215.608C10.3662 215.209 9.13649 214.775 7.92409 214.29C6.72036 213.813 5.64653 213.172 4.7026 212.383C3.75867 211.585 2.99659 210.588 2.42504 209.383C1.84482 208.178 1.55905 206.644 1.55905 204.789C1.55905 202.934 1.86214 201.261 2.477 199.752C3.09185 198.244 3.94919 196.953 5.05766 195.878C6.16613 194.803 7.51708 193.97 9.12783 193.372C10.7299 192.774 12.5225 192.479 14.5056 192.479C16.3589 192.479 18.29 192.74 20.3078 193.251C22.3256 193.762 24.2567 194.517 26.11 195.514L22.239 203.107H22.213Z" fill="#CC1517"/>
<path d="M61.6074 206.037C59.3558 203.289 56.5846 201.92 53.2765 201.92C51.8217 201.92 50.4707 202.188 49.2324 202.717C47.994 203.246 46.9288 203.965 46.0368 204.876C45.1449 205.786 44.4434 206.869 43.9325 208.126C43.4215 209.383 43.1617 210.744 43.1617 212.201C43.1617 213.657 43.4215 215.061 43.9325 216.318C44.4434 217.575 45.1535 218.668 46.0628 219.595C46.9721 220.523 48.0373 221.251 49.2583 221.78C50.4794 222.308 51.8044 222.577 53.2246 222.577C56.3335 222.577 59.122 221.251 61.6074 218.607V230.128L60.6115 230.474C59.122 231.003 57.7364 231.393 56.4461 231.645C55.1558 231.896 53.8827 232.017 52.6271 232.017C50.0464 232.017 47.5783 231.532 45.2141 230.552C42.85 229.573 40.7716 228.203 38.9617 226.435C37.1604 224.666 35.7142 222.56 34.6231 220.133C33.5319 217.697 32.9863 215.044 32.9863 212.166C32.9863 209.288 33.5232 206.644 34.5971 204.252C35.6709 201.85 37.1085 199.787 38.9097 198.045C40.711 196.311 42.8067 194.95 45.1795 193.97C47.561 192.991 50.0551 192.505 52.6704 192.505C54.1599 192.505 55.6234 192.662 57.0609 192.974C58.4985 193.286 60.014 193.78 61.5987 194.439V206.055L61.6074 206.037Z" fill="#CC1517"/>
<path d="M89.9423 217.055L85.5777 204.598L81.2131 217.055H89.9423ZM92.5143 224.45H78.6324L76.3982 230.951H66.0322L80.2605 193.52H90.8689L105.097 230.951H94.7312L92.497 224.45H92.5143Z" fill="#CC1517"/>
<path d="M109.245 230.96L115.593 193.528H125.214L132.705 213.484L140.144 193.528H149.765L156.113 230.96H146.44L143.218 209.418L134.394 230.96H130.523L122.14 209.418L118.918 230.96H109.245Z" fill="#CC1517"/>
<path d="M183.669 217.055L179.304 204.598L174.94 217.055H183.669ZM186.241 224.45H172.359L170.125 230.951H159.759L173.987 193.52H184.595L198.824 230.951H188.458L186.224 224.45H186.241Z" fill="black"/>
<path d="M212.939 222.716H215.173C216.862 222.716 218.36 222.456 219.685 221.918C221.01 221.39 222.127 220.661 223.036 219.734C223.946 218.806 224.639 217.705 225.115 216.431C225.591 215.157 225.834 213.761 225.834 212.235C225.834 210.71 225.582 209.357 225.089 208.066C224.595 206.774 223.894 205.665 222.984 204.737C222.075 203.809 220.958 203.081 219.633 202.552C218.308 202.024 216.819 201.755 215.173 201.755H212.939V222.707V222.716ZM203.214 193.528H217.598C220.144 193.528 222.534 194.04 224.76 195.071C226.994 196.094 228.943 197.464 230.614 199.163C232.285 200.871 233.593 202.856 234.554 205.118C235.515 207.39 235.992 209.756 235.992 212.244C235.992 214.732 235.524 217.055 234.58 219.318C233.636 221.589 232.329 223.583 230.666 225.299C228.994 227.024 227.046 228.394 224.812 229.417C222.577 230.44 220.179 230.96 217.598 230.96H203.214V193.528Z" fill="black"/>
<path d="M246.263 193.528L255.286 216.31L264.362 193.528H274.927L259.157 230.96H251.424L235.706 193.528H246.271H246.263Z" fill="black"/>
<path d="M288.887 230.96H279.171V193.528H288.887V230.96Z" fill="black"/>
<path d="M317.387 203.107C316.33 202.249 315.274 201.608 314.217 201.2C313.161 200.784 312.13 200.576 311.143 200.576C309.887 200.576 308.865 200.871 308.069 201.469C307.272 202.067 306.882 202.839 306.882 203.801C306.882 204.46 307.081 205.006 307.48 205.439C307.878 205.873 308.398 206.245 309.039 206.557C309.679 206.869 310.407 207.147 311.221 207.372C312.035 207.606 312.832 207.849 313.628 208.118C316.798 209.175 319.127 210.588 320.6 212.365C322.072 214.134 322.808 216.448 322.808 219.292C322.808 221.207 322.488 222.95 321.838 224.502C321.197 226.053 320.253 227.388 319.015 228.498C317.777 229.607 316.252 230.466 314.451 231.081C312.65 231.697 310.606 232 308.329 232C303.6 232 299.218 230.596 295.191 227.778L299.357 219.933C300.812 221.225 302.249 222.187 303.669 222.811C305.09 223.444 306.493 223.756 307.887 223.756C309.472 223.756 310.658 223.392 311.429 222.664C312.208 221.936 312.598 221.112 312.598 220.185C312.598 219.621 312.503 219.136 312.303 218.72C312.104 218.303 311.775 217.922 311.308 217.575C310.84 217.229 310.242 216.908 309.498 216.604C308.753 216.31 307.852 215.98 306.796 215.608C305.54 215.209 304.31 214.775 303.098 214.29C301.894 213.813 300.82 213.172 299.876 212.383C298.932 211.585 298.17 210.588 297.599 209.383C297.019 208.178 296.733 206.644 296.733 204.789C296.733 202.934 297.036 201.261 297.651 199.752C298.266 198.244 299.123 196.953 300.231 195.878C301.34 194.803 302.691 193.97 304.302 193.372C305.904 192.774 307.696 192.479 309.679 192.479C311.533 192.479 313.464 192.74 315.482 193.251C317.499 193.762 319.431 194.517 321.284 195.514L317.413 203.107H317.387Z" fill="black"/>
<path d="M350.961 201.764H339.409V208.022H350.32V216.266H339.409V222.716H350.961V230.96H329.684V193.528H350.961V201.772V201.764Z" fill="black"/>
<path d="M368.628 210.259H370.463C372.377 210.259 373.85 209.86 374.88 209.071C375.902 208.274 376.422 207.138 376.422 205.647C376.422 204.156 375.911 203.012 374.88 202.223C373.858 201.426 372.386 201.035 370.463 201.035H368.628V210.268V210.259ZM390 230.951H377.902L368.628 216.552V230.951H358.911V193.52H374.04C376.127 193.52 377.937 193.823 379.496 194.439C381.046 195.054 382.328 195.886 383.341 196.944C384.345 198.001 385.107 199.224 385.618 200.619C386.129 202.006 386.389 203.497 386.389 205.084C386.389 207.927 385.705 210.242 384.328 212.01C382.96 213.778 380.933 214.983 378.257 215.608L390.009 230.942L390 230.951Z" fill="black"/>
</g>
<defs>
<clipPath id="clip0_2591_2063">
<rect width="390" height="232" fill="white"/>
</clipPath>
</defs>
</svg>
