<svg width="1302" height="215" viewBox="0 0 1302 215" fill="none" xmlns="http://www.w3.org/2000/svg">
<g clip-path="url(#clip0_2591_1136)">
<path d="M0 22.5915V137.348L77.4553 215L154.911 137.348V22.5915C154.911 22.5915 82.983 -28.2526 0 22.5915Z" fill="black"/>
<path d="M0 137.348L37.3415 100.244L76.0692 137.348L154.894 61.7621V137.348L77.4384 215L0 137.348Z" fill="#CC1517"/>
<path d="M113.783 101.201L76.0695 137.348L37.3418 100.244L75.0721 62.7531L113.766 101.201H113.783Z" fill="white"/>
<path d="M270.908 82.0695C267.933 79.6844 264.974 77.9039 262.016 76.7449C259.041 75.6027 256.184 75.0148 253.395 75.0148C249.879 75.0148 247.005 75.8379 244.774 77.5008C242.542 79.1637 241.444 81.3305 241.444 84.0012C241.444 85.8488 242.002 87.3605 243.117 88.5531C244.233 89.7457 245.687 90.7871 247.495 91.6605C249.304 92.534 251.333 93.2898 253.615 93.9449C255.88 94.5832 258.128 95.2887 260.36 96.0109C269.251 98.9672 275.759 102.898 279.901 107.819C284.026 112.741 286.088 119.174 286.088 127.085C286.088 132.427 285.192 137.264 283.383 141.598C281.574 145.931 278.937 149.627 275.455 152.717C271.973 155.808 267.713 158.193 262.659 159.906C257.604 161.603 251.891 162.459 245.484 162.459C232.231 162.459 219.941 158.546 208.649 150.718L220.33 128.899C224.404 132.494 228.444 135.164 232.434 136.911C236.423 138.658 240.362 139.532 244.25 139.532C248.696 139.532 252.009 138.524 254.189 136.491C256.37 134.459 257.452 132.158 257.452 129.588C257.452 128.026 257.182 126.665 256.624 125.506C256.066 124.364 255.136 123.289 253.835 122.332C252.533 121.357 250.842 120.467 248.763 119.644C246.684 118.821 244.148 117.897 241.19 116.889C237.674 115.781 234.209 114.571 230.828 113.228C227.447 111.901 224.438 110.12 221.784 107.903C219.13 105.686 217.017 102.914 215.394 99.5383C213.771 96.1789 212.96 91.9125 212.96 86.7559C212.96 81.5992 213.822 76.9297 215.529 72.7305C217.237 68.548 219.654 64.9535 222.764 61.9469C225.875 58.957 229.661 56.6223 234.158 54.9762C238.654 53.3133 243.675 52.4902 249.237 52.4902C254.426 52.4902 259.852 53.2125 265.498 54.6234C271.144 56.0512 276.571 58.1508 281.76 60.9055L270.908 82.0359V82.0695Z" fill="#CC1517"/>
<path d="M381.344 90.2328C375.039 82.5902 367.246 78.7605 357.982 78.7605C353.908 78.7605 350.122 79.4996 346.656 80.9777C343.174 82.4558 340.199 84.4547 337.697 86.991C335.195 89.5273 333.217 92.534 331.781 96.0445C330.344 99.5383 329.634 103.318 329.634 107.366C329.634 111.414 330.344 115.327 331.781 118.838C333.217 122.332 335.212 125.372 337.765 127.959C340.317 130.545 343.309 132.561 346.724 134.039C350.155 135.517 353.858 136.256 357.847 136.256C366.553 136.256 374.396 132.578 381.344 125.204V157.252L378.555 158.227C374.379 159.705 370.491 160.78 366.874 161.468C363.256 162.157 359.689 162.51 356.173 162.51C348.938 162.51 342.008 161.149 335.381 158.428C328.755 155.707 322.906 151.894 317.868 146.956C312.814 142.034 308.757 136.172 305.697 129.403C302.638 122.634 301.116 115.243 301.116 107.231C301.116 99.2191 302.621 91.8789 305.63 85.1937C308.639 78.5086 312.679 72.764 317.733 67.9265C322.787 63.089 328.653 59.3097 335.314 56.6054C341.991 53.8844 348.989 52.5238 356.309 52.5238C360.484 52.5238 364.575 52.9605 368.615 53.834C372.655 54.7074 376.881 56.0679 381.344 57.9156V90.2496V90.2328Z" fill="#CC1517"/>
<path d="M460.759 120.904L448.521 86.2352L436.282 120.904H460.759ZM467.995 141.48H429.064L422.809 159.57H393.751L433.645 55.4129H463.397L503.291 159.57H474.232L467.978 141.48H467.995Z" fill="#CC1517"/>
<path d="M514.887 159.57L532.687 55.4129H559.666L580.661 110.943L601.521 55.4129H628.5L646.3 159.57H619.186L610.142 99.6223L585.394 159.57H574.559L551.062 99.6223L542.018 159.57H514.904H514.887Z" fill="#CC1517"/>
<path d="M723.537 120.904L711.298 86.2352L699.059 120.904H723.537ZM730.772 141.48H691.841L685.587 159.57H656.528L696.422 55.4129H726.174L766.068 159.57H737.009L730.755 141.48H730.772Z" fill="black"/>
<path d="M805.606 136.643H811.861C816.594 136.643 820.803 135.904 824.505 134.425C828.207 132.947 831.334 130.932 833.887 128.345C836.439 125.775 838.383 122.701 839.719 119.157C841.054 115.613 841.731 111.716 841.731 107.483C841.731 103.25 841.037 99.4711 839.651 95.8766C838.265 92.282 836.287 89.2082 833.735 86.6215C831.182 84.0516 828.055 82.0192 824.353 80.541C820.651 79.0629 816.476 78.3238 811.844 78.3238H805.589V136.626L805.606 136.643ZM778.356 55.4129H818.673C825.807 55.4129 832.501 56.8406 838.755 59.6961C845.01 62.5516 850.487 66.3477 855.152 71.1012C859.835 75.8379 863.52 81.3641 866.208 87.6797C868.896 93.9953 870.248 100.596 870.248 107.5C870.248 114.404 868.929 120.87 866.292 127.186C863.655 133.502 859.987 139.045 855.305 143.832C850.622 148.619 845.162 152.448 838.907 155.304C832.653 158.159 825.908 159.587 818.673 159.587H778.356V55.4297V55.4129Z" fill="black"/>
<path d="M899.037 55.4129L924.343 118.821L949.783 55.4129H979.4L935.195 159.57H913.507L869.438 55.4129H899.054H899.037Z" fill="black"/>
<path d="M1018.53 159.57H991.283V55.4129H1018.53V159.57Z" fill="black"/>
<path d="M1098.42 82.0695C1095.45 79.6844 1092.49 77.9039 1089.53 76.7449C1086.56 75.6027 1083.7 75.0148 1080.91 75.0148C1077.39 75.0148 1074.52 75.8379 1072.29 77.5008C1070.06 79.1637 1068.96 81.3305 1068.96 84.0012C1068.96 85.8488 1069.52 87.3605 1070.63 88.5531C1071.75 89.7457 1073.2 90.7871 1075.01 91.6605C1076.82 92.534 1078.85 93.2898 1081.13 93.9449C1083.39 94.5832 1085.64 95.2887 1087.87 96.0109C1096.77 98.9672 1103.27 102.898 1107.42 107.819C1111.54 112.741 1113.6 119.174 1113.6 127.085C1113.6 132.427 1112.71 137.264 1110.9 141.598C1109.09 145.931 1106.45 149.627 1102.97 152.717C1099.49 155.808 1095.23 158.193 1090.17 159.906C1085.12 161.603 1079.41 162.459 1073 162.459C1059.75 162.459 1047.46 158.546 1036.16 150.718L1047.84 128.899C1051.92 132.494 1055.96 135.164 1059.95 136.911C1063.94 138.658 1067.88 139.532 1071.76 139.532C1076.21 139.532 1079.52 138.524 1081.7 136.491C1083.88 134.459 1084.97 132.158 1084.97 129.588C1084.97 128.026 1084.7 126.665 1084.14 125.506C1083.58 124.364 1082.65 123.289 1081.35 122.332C1080.05 121.357 1078.36 120.467 1076.28 119.644C1074.2 118.821 1071.66 117.897 1068.7 116.889C1065.19 115.781 1061.72 114.571 1058.34 113.228C1054.96 111.901 1051.95 110.12 1049.3 107.903C1046.66 105.686 1044.53 102.914 1042.91 99.5383C1041.29 96.1789 1040.47 91.9125 1040.47 86.7559C1040.47 81.5992 1041.34 76.9297 1043.04 72.7305C1044.75 68.548 1047.17 64.9535 1050.28 61.9469C1053.39 58.957 1057.18 56.6223 1061.67 54.9762C1066.17 53.3133 1071.19 52.4902 1076.75 52.4902C1081.94 52.4902 1087.37 53.2125 1093.01 54.6234C1098.66 56.0512 1104.09 58.1508 1109.28 60.9055L1098.42 82.0359V82.0695Z" fill="black"/>
<path d="M1192.55 78.3406H1160.16V95.7422H1190.74V118.67H1160.16V136.626H1192.55V159.554H1132.91V55.3961H1192.55V78.3238V78.3406Z" fill="black"/>
<path d="M1242.07 101.974H1247.21C1252.59 101.974 1256.71 100.865 1259.59 98.6649C1262.46 96.4477 1263.9 93.2731 1263.9 89.141C1263.9 85.009 1262.46 81.8176 1259.59 79.6004C1256.71 77.3832 1252.59 76.2914 1247.21 76.2914H1242.07V101.991V101.974ZM1302 159.57H1268.07L1242.07 119.51V159.57H1214.83V55.4129H1257.22C1263.05 55.4129 1268.16 56.2695 1272.52 57.966C1276.88 59.6793 1280.46 61.9973 1283.29 64.9367C1286.11 67.893 1288.24 71.2859 1289.68 75.166C1291.11 79.0293 1291.82 83.1781 1291.82 87.5957C1291.82 95.5238 1289.9 101.94 1286.06 106.862C1282.21 111.783 1276.54 115.126 1269.04 116.873L1301.98 159.554L1302 159.57Z" fill="black"/>
</g>
<defs>
<clipPath id="clip0_2591_1136">
<rect width="1302" height="215" fill="white"/>
</clipPath>
</defs>
</svg>
