<svg width="391" height="232" viewBox="0 0 391 232" fill="none" xmlns="http://www.w3.org/2000/svg">
<g clip-path="url(#clip0_2591_1976)">
<path d="M22.2752 203.038C21.2099 202.18 20.1533 201.538 19.0967 201.122C18.0315 200.706 17.0095 200.498 16.0136 200.498C14.7578 200.498 13.7272 200.793 12.9304 201.391C12.1336 201.989 11.7352 202.769 11.7352 203.731C11.7352 204.399 11.9344 204.945 12.3328 205.37C12.7312 205.803 13.2508 206.176 13.9004 206.488C14.5499 206.8 15.2774 207.078 16.0915 207.312C16.9056 207.546 17.7111 207.797 18.4992 208.057C21.6776 209.123 24.0073 210.536 25.4883 212.313C26.9606 214.09 27.6967 216.405 27.6967 219.257C27.6967 221.181 27.3763 222.924 26.7267 224.484C26.0772 226.045 25.1332 227.38 23.8947 228.489C22.6476 229.599 21.1233 230.466 19.3219 231.081C17.5119 231.697 15.468 232 13.1816 232C8.44421 232 4.05329 230.587 0.00878906 227.77L4.1832 219.907C5.63818 221.199 7.0845 222.161 8.50483 222.794C9.93383 223.427 11.3369 223.739 12.7312 223.739C14.3248 223.739 15.5026 223.375 16.2821 222.646C17.0615 221.918 17.4512 221.086 17.4512 220.159C17.4512 219.595 17.356 219.11 17.1568 218.694C16.9576 218.277 16.6285 217.896 16.1608 217.549C15.6931 217.203 15.0955 216.873 14.3421 216.578C13.5973 216.284 12.6966 215.946 11.6313 215.582C10.3755 215.183 9.13706 214.741 7.92457 214.264C6.71209 213.787 5.63818 213.146 4.69417 212.348C3.75017 211.551 2.98803 210.545 2.40777 209.34C1.82751 208.126 1.54171 206.592 1.54171 204.737C1.54171 202.882 1.84484 201.2 2.45974 199.683C3.07464 198.175 3.93204 196.883 5.04926 195.8C6.15781 194.725 7.51753 193.884 9.1284 193.286C10.7393 192.688 12.532 192.393 14.524 192.393C16.3773 192.393 18.3173 192.653 20.3439 193.164C22.3618 193.676 24.3018 194.43 26.1638 195.427L22.2838 203.038H22.2752Z" fill="white"/>
<path d="M61.767 205.968C59.5153 203.211 56.7266 201.842 53.4182 201.842C51.9632 201.842 50.6122 202.11 49.3651 202.639C48.1179 203.168 47.0527 203.887 46.1606 204.806C45.2686 205.717 44.5584 206.809 44.0475 208.066C43.5365 209.323 43.2767 210.684 43.2767 212.149C43.2767 213.614 43.5365 215.018 44.0475 216.275C44.5584 217.532 45.2773 218.633 46.1866 219.56C47.096 220.488 48.1699 221.216 49.391 221.754C50.6208 222.282 51.9459 222.551 53.3663 222.551C56.4841 222.551 59.2814 221.225 61.767 218.572V230.119L60.7711 230.466C59.2814 230.994 57.8871 231.385 56.5967 231.636C55.3062 231.887 54.0245 232.009 52.7687 232.009C50.1878 232.009 47.7022 231.515 45.3379 230.544C42.9649 229.564 40.8777 228.186 39.0763 226.417C37.2662 224.64 35.8199 222.534 34.7286 220.098C33.6374 217.662 33.0918 215.001 33.0918 212.114C33.0918 209.227 33.6288 206.583 34.7113 204.174C35.7852 201.772 37.2316 199.692 39.033 197.949C40.843 196.207 42.9389 194.846 45.3206 193.866C47.7109 192.887 50.2051 192.401 52.8293 192.401C54.3189 192.401 55.7912 192.557 57.2289 192.878C58.6665 193.19 60.1908 193.684 61.7757 194.343V205.985L61.767 205.968Z" fill="white"/>
<path d="M90.1652 217.021L85.7916 204.529L81.418 217.021H90.1652ZM92.7547 224.432H78.8371L76.6027 230.951H66.21L80.4826 193.433H91.1178L105.391 230.951H94.9978L92.7634 224.432H92.7547Z" fill="white"/>
<path d="M109.522 230.951L115.888 193.433H125.536L133.045 213.44L140.501 193.433H150.149L156.515 230.951H146.824L143.593 209.357L134.742 230.951H130.862L122.461 209.357L119.231 230.951H109.54H109.522Z" fill="white"/>
<g opacity="0.7">
<path d="M184.142 217.021L179.768 204.529L175.394 217.021H184.142ZM186.722 224.432H172.805L170.57 230.951H160.178L174.45 193.433H185.086L199.358 230.951H188.966L186.731 224.432H186.722Z" fill="white"/>
</g>
<g opacity="0.7">
<path d="M213.484 222.69H215.719C217.408 222.69 218.914 222.421 220.24 221.892C221.565 221.364 222.682 220.635 223.6 219.699C224.509 218.772 225.211 217.671 225.687 216.388C226.163 215.113 226.406 213.709 226.406 212.183C226.406 210.658 226.155 209.297 225.661 208.005C225.167 206.713 224.457 205.604 223.548 204.668C222.638 203.74 221.521 203.012 220.196 202.474C218.871 201.946 217.382 201.677 215.719 201.677H213.484V222.681V222.69ZM203.741 193.433H218.161C220.716 193.433 223.106 193.944 225.349 194.976C227.584 196.008 229.541 197.377 231.212 199.085C232.884 200.793 234.2 202.787 235.162 205.058C236.123 207.329 236.599 209.713 236.599 212.201C236.599 214.689 236.123 217.021 235.179 219.292C234.235 221.563 232.927 223.565 231.247 225.29C229.576 227.016 227.618 228.394 225.384 229.417C223.149 230.448 220.733 230.96 218.152 230.96H203.732V193.442L203.741 193.433Z" fill="white"/>
</g>
<g opacity="0.7">
<path d="M246.897 193.433L255.947 216.275L265.049 193.433H275.641L259.827 230.951H252.067L236.305 193.433H246.897Z" fill="white"/>
</g>
<path opacity="0.7" d="M289.637 230.951H279.894V193.433H289.637V230.951Z" fill="white"/>
<g opacity="0.7">
<path d="M318.199 203.038C317.134 202.18 316.077 201.538 315.021 201.122C313.955 200.706 312.933 200.498 311.937 200.498C310.682 200.498 309.651 200.793 308.854 201.391C308.057 201.989 307.659 202.769 307.659 203.731C307.659 204.399 307.858 204.945 308.257 205.37C308.655 205.803 309.175 206.176 309.824 206.488C310.474 206.8 311.201 207.078 312.015 207.312C312.829 207.546 313.635 207.797 314.423 208.057C317.601 209.123 319.931 210.536 321.412 212.313C322.884 214.09 323.621 216.405 323.621 219.257C323.621 221.181 323.3 222.924 322.651 224.484C322.001 226.045 321.057 227.38 319.819 228.489C318.571 229.599 317.047 230.466 315.246 231.081C313.436 231.697 311.392 232 309.105 232C304.368 232 299.977 230.587 295.933 227.77L300.107 219.907C301.562 221.199 303.008 222.161 304.429 222.794C305.858 223.427 307.261 223.739 308.655 223.739C310.249 223.739 311.426 223.375 312.206 222.646C312.985 221.918 313.375 221.086 313.375 220.159C313.375 219.595 313.28 219.11 313.081 218.694C312.881 218.277 312.552 217.896 312.085 217.549C311.617 217.203 311.019 216.873 310.266 216.578C309.521 216.284 308.62 215.946 307.555 215.582C306.299 215.183 305.061 214.741 303.848 214.264C302.636 213.787 301.562 213.146 300.618 212.348C299.674 211.551 298.912 210.545 298.332 209.34C297.751 208.126 297.466 206.592 297.466 204.737C297.466 202.882 297.769 201.2 298.384 199.683C298.998 198.175 299.856 196.883 300.973 195.8C302.082 194.725 303.441 193.884 305.052 193.286C306.663 192.688 308.456 192.393 310.448 192.393C312.301 192.393 314.241 192.653 316.268 193.164C318.286 193.676 320.226 194.43 322.088 195.427L318.208 203.038H318.199Z" fill="white"/>
</g>
<g opacity="0.7">
<path d="M351.863 201.694H340.275V207.962H351.214V216.223H340.275V222.69H351.863V230.951H330.532V193.433H351.863V201.694Z" fill="white"/>
</g>
<g opacity="0.7">
<path d="M369.574 210.198H371.41C373.333 210.198 374.805 209.799 375.836 209.002C376.866 208.204 377.377 207.06 377.377 205.569C377.377 204.078 376.866 202.934 375.836 202.136C374.805 201.339 373.333 200.94 371.41 200.94H369.574V210.198ZM391 230.951H378.867L369.565 216.518V230.951H359.822V193.433H374.987C377.074 193.433 378.902 193.736 380.452 194.352C382.011 194.967 383.292 195.8 384.306 196.866C385.319 197.932 386.081 199.154 386.592 200.55C387.103 201.946 387.363 203.437 387.363 205.032C387.363 207.884 386.679 210.198 385.302 211.975C383.925 213.752 381.898 214.957 379.213 215.582L391 230.96V230.951Z" fill="white"/>
</g>
<path opacity="0.7" d="M134.387 18.1696V110.439L164.196 80.6014L194.318 50.4517L225.202 81.3643L258.025 49.6629V18.1696C258.025 18.1696 200.623 -22.712 134.378 18.1696H134.387Z" fill="white"/>
<path d="M225.202 81.3643L195.106 110.439L164.188 80.6014L134.387 110.439L196.206 172.871L258.025 110.439V49.6629L225.202 81.3643Z" fill="white"/>
</g>
<defs>
<clipPath id="clip0_2591_1976">
<rect width="391" height="232" fill="white"/>
</clipPath>
</defs>
</svg>
