<svg width="1302" height="217" viewBox="0 0 1302 217" fill="none" xmlns="http://www.w3.org/2000/svg">
<g clip-path="url(#clip0_2591_1920)">
<path opacity="0.7" d="M0 22.8092V138.628L37.4937 101.181L75.393 63.3289L114.256 102.143L155.553 62.3497V22.8092C155.553 22.8092 83.3211 -28.5158 0 22.8092Z" fill="white"/>
<path d="M114.256 102.143L76.3904 138.628L37.4937 101.181L0 138.628L77.7765 217L155.536 138.628V62.3328L114.256 102.143Z" fill="white"/>
<path d="M271.178 82.4745C268.22 80.0771 265.245 78.2875 262.286 77.1225C259.328 75.9745 256.454 75.3836 253.665 75.3836C250.149 75.3836 247.275 76.2108 245.044 77.8823C242.813 79.5537 241.714 81.7317 241.714 84.3992C241.714 86.2564 242.272 87.7758 243.387 88.9746C244.503 90.1733 245.957 91.22 247.766 92.0979C249.574 92.9759 251.603 93.7356 253.885 94.3941C256.15 95.0356 258.398 95.7447 260.63 96.4707C269.521 99.4253 276.03 103.393 280.154 108.34C284.279 113.286 286.341 119.753 286.341 127.705C286.341 133.074 285.445 137.936 283.636 142.275C281.828 146.631 279.191 150.345 275.708 153.452C272.226 156.558 267.966 158.955 262.929 160.678C257.874 162.383 252.161 163.244 245.771 163.244C232.518 163.244 220.245 159.31 208.937 151.442L220.617 129.511C224.691 133.124 228.731 135.809 232.704 137.564C236.693 139.32 240.632 140.198 244.52 140.198C248.966 140.198 252.279 139.185 254.46 137.142C256.64 135.116 257.722 132.787 257.722 130.203C257.722 128.633 257.452 127.266 256.894 126.101C256.336 124.953 255.406 123.872 254.122 122.91C252.82 121.931 251.13 121.036 249.05 120.209C246.971 119.381 244.435 118.453 241.477 117.44C237.961 116.325 234.496 115.11 231.115 113.759C227.734 112.425 224.725 110.636 222.088 108.407C219.451 106.179 217.321 103.393 215.698 100.016C214.075 96.6395 213.264 92.3681 213.264 87.168C213.264 81.968 214.126 77.2914 215.833 73.0706C217.541 68.8666 219.958 65.2536 223.068 62.2484C226.179 59.2432 229.965 56.8964 234.462 55.2419C238.958 53.5704 243.979 52.7432 249.541 52.7432C254.73 52.7432 260.156 53.4691 265.802 54.8873C271.448 56.3224 276.875 58.4328 282.064 61.2017L271.229 82.4407L271.178 82.4745Z" fill="white"/>
<path d="M381.58 90.6629C375.274 82.981 367.498 79.1486 358.235 79.1486C354.161 79.1486 350.374 79.8914 346.909 81.3771C343.427 82.8629 340.452 84.872 337.95 87.4213C335.448 89.9707 333.47 92.9928 332.05 96.5214C330.613 100.033 329.903 103.832 329.903 107.901C329.903 111.97 330.613 115.903 332.05 119.415C333.487 122.927 335.482 125.983 338.034 128.583C340.587 131.183 343.579 133.209 346.993 134.694C350.425 136.18 354.127 136.923 358.117 136.923C366.822 136.923 374.649 133.225 381.613 125.814V158.027L378.841 159.006C374.666 160.492 370.778 161.572 367.16 162.265C363.543 162.957 359.976 163.311 356.46 163.311C349.225 163.311 342.311 161.944 335.685 159.209C329.058 156.474 323.226 152.641 318.172 147.694C313.117 142.748 309.06 136.872 306.018 130.068C302.958 123.264 301.437 115.836 301.437 107.782C301.437 99.7292 302.941 92.3512 305.95 85.6486C308.959 78.9459 312.999 73.155 318.036 68.2926C323.091 63.4303 328.94 59.6484 335.617 56.9133C342.294 54.1783 349.276 52.8107 356.612 52.8107C360.787 52.8107 364.878 53.2497 368.918 54.1276C372.942 55.0055 377.184 56.3731 381.63 58.2302V90.7136L381.58 90.6629Z" fill="white"/>
<path d="M460.979 121.475L448.74 86.6278L436.501 121.475H460.962H460.979ZM468.214 142.174H429.3L423.045 160.357H394.004L433.898 55.6808H463.649L503.544 160.357H474.502L468.247 142.174H468.214Z" fill="white"/>
<path d="M515.09 160.357L532.873 55.6808H559.835L580.831 111.48L601.673 55.6808H628.636L646.419 160.357H619.322L610.295 100.117L585.547 160.357H574.711L551.214 100.117L542.187 160.357H515.09Z" fill="white"/>
<g opacity="0.7">
<path d="M723.689 121.475L711.45 86.6278L699.211 121.475H723.672H723.689ZM730.924 142.174H692.01L685.755 160.357H656.714L696.608 55.6808H726.359L766.254 160.357H737.212L730.957 142.174H730.924Z" fill="white"/>
</g>
<g opacity="0.7">
<path d="M805.725 137.311H811.98C816.713 137.311 820.922 136.568 824.624 135.083C828.326 133.597 831.453 131.571 834.006 128.971C836.558 126.388 838.502 123.298 839.838 119.736C841.173 116.173 841.849 112.257 841.849 108.002C841.849 103.747 841.156 99.9487 839.77 96.3356C838.384 92.7226 836.406 89.633 833.871 87.033C831.318 84.4499 828.191 82.407 824.489 80.9213C820.787 79.4355 816.611 78.6927 811.98 78.6927H805.725V137.277V137.311ZM778.492 55.6808H818.792C825.926 55.6808 832.62 57.1159 838.874 59.9861C845.129 62.8562 850.589 66.6718 855.271 71.4329C859.954 76.194 863.639 81.7485 866.327 88.0966C869.014 94.4447 870.35 101.08 870.35 108.019C870.35 114.958 869.031 121.458 866.394 127.806C863.757 134.154 860.089 139.726 855.407 144.537C850.724 149.349 845.264 153.198 839.009 156.052C832.755 158.922 826.01 160.357 818.792 160.357H778.492V55.6808Z" fill="white"/>
</g>
<g opacity="0.7">
<path d="M899.138 55.6808L924.426 119.398L949.867 55.6808H979.467L935.262 160.357H913.574L869.521 55.6808H899.121H899.138Z" fill="white"/>
</g>
<path opacity="0.7" d="M1018.62 160.357H991.367V55.6808H1018.62V160.357Z" fill="white"/>
<g opacity="0.7">
<path d="M1098.47 82.4745C1095.51 80.0771 1092.54 78.2875 1089.58 77.1225C1086.62 75.9745 1083.75 75.3836 1080.96 75.3836C1077.44 75.3836 1074.57 76.2108 1072.34 77.8823C1070.11 79.5537 1069.01 81.7317 1069.01 84.3992C1069.01 86.2564 1069.57 87.7758 1070.68 88.9746C1071.8 90.1733 1073.25 91.22 1075.06 92.0979C1076.87 92.9759 1078.9 93.7356 1081.18 94.3941C1083.45 95.0356 1085.69 95.7447 1087.92 96.4707C1096.82 99.4253 1103.32 103.393 1107.45 108.34C1111.57 113.286 1113.64 119.753 1113.64 127.705C1113.64 133.074 1112.74 137.936 1110.93 142.275C1109.12 146.631 1106.49 150.345 1103 153.452C1099.52 156.558 1095.26 158.955 1090.22 160.678C1085.17 162.383 1079.46 163.244 1073.07 163.244C1059.81 163.244 1047.54 159.31 1036.23 151.442L1047.91 129.511C1051.99 133.124 1056.03 135.809 1060 137.564C1063.99 139.32 1067.93 140.198 1071.81 140.198C1076.26 140.198 1079.57 139.185 1081.75 137.142C1083.94 135.116 1085.02 132.787 1085.02 130.203C1085.02 128.633 1084.75 127.266 1084.19 126.101C1083.63 124.953 1082.7 123.872 1081.42 122.91C1080.11 121.931 1078.42 121.036 1076.35 120.209C1074.27 119.381 1071.73 118.453 1068.77 117.44C1065.26 116.325 1061.81 115.11 1058.41 113.759C1055.03 112.425 1052.02 110.636 1049.38 108.407C1046.75 106.179 1044.62 103.393 1042.99 100.016C1041.37 96.6395 1040.56 92.3681 1040.56 87.168C1040.56 81.968 1041.42 77.2914 1043.13 73.0706C1044.84 68.8666 1047.25 65.2536 1050.36 62.2484C1053.47 59.2432 1057.26 56.8964 1061.76 55.2419C1066.25 53.5704 1071.27 52.7432 1076.84 52.7432C1082.03 52.7432 1087.45 53.4691 1093.1 54.8873C1098.74 56.3224 1104.17 58.4328 1109.36 61.2017L1098.52 82.4407L1098.47 82.4745Z" fill="white"/>
</g>
<g opacity="0.7">
<path d="M1192.58 78.7264H1160.19V96.2175H1190.77V119.263H1160.19V137.311H1192.58V160.357H1132.96V55.6808H1192.58V78.7264Z" fill="white"/>
</g>
<g opacity="0.7">
<path d="M1242.09 102.464H1247.23C1252.61 102.464 1256.73 101.35 1259.6 99.1383C1262.48 96.9097 1263.91 93.7187 1263.91 89.5655C1263.91 85.4122 1262.48 82.2044 1259.6 79.9927C1256.73 77.7641 1252.61 76.6667 1247.23 76.6667H1242.09V102.481V102.464ZM1302 160.357H1268.09L1242.09 120.107V160.357H1214.84V55.6808H1257.24C1263.07 55.6808 1268.17 56.5419 1272.52 58.2471C1276.88 59.9523 1280.46 62.2991 1283.29 65.2536C1286.11 68.2082 1288.24 71.6355 1289.68 75.5186C1291.11 79.4018 1291.82 83.5719 1291.82 88.0122C1291.82 95.9811 1289.9 102.43 1286.06 107.377C1282.21 112.324 1276.54 115.684 1269.04 117.44L1301.98 160.34L1302 160.357Z" fill="white"/>
</g>
</g>
<defs>
<clipPath id="clip0_2591_1920">
<rect width="1302" height="217" fill="white"/>
</clipPath>
</defs>
</svg>
