<svg width="273" height="286" viewBox="0 0 273 286" fill="none" xmlns="http://www.w3.org/2000/svg">
<g clip-path="url(#clip0_2591_2004)">
<path opacity="0.7" d="M54.2168 24.4049V148.334L94.3494 108.259L134.906 67.7604L176.493 109.288L220.691 66.7022V24.4049C220.691 24.4049 143.403 -30.5134 54.2264 24.4049H54.2168Z" fill="white"/>
<path d="M176.483 109.288L135.966 148.334H135.956L94.3398 108.268L54.2168 148.334L137.449 232.198L220.681 148.334V66.7022L176.483 109.288Z" fill="white"/>
<path d="M15.5484 265.828C14.8066 265.231 14.0648 264.779 13.3231 264.491C12.5813 264.202 11.8684 264.058 11.1748 264.058C10.2982 264.058 9.5757 264.269 9.0266 264.683C8.46786 265.097 8.19813 265.645 8.19813 266.309C8.19813 266.77 8.33299 267.155 8.61236 267.453C8.89173 267.752 9.2578 268.011 9.71057 268.233C10.1633 268.454 10.6739 268.646 11.2423 268.8C11.8106 268.964 12.3694 269.137 12.9281 269.32C15.1534 270.06 16.7718 271.051 17.8026 272.282C18.8334 273.523 19.3439 275.13 19.3439 277.121C19.3439 278.458 19.1224 279.67 18.6696 280.757C18.2168 281.844 17.5618 282.777 16.6948 283.547C15.8278 284.326 14.7585 284.923 13.4965 285.346C12.2345 285.769 10.8088 285.99 9.20963 285.99C5.89575 285.99 2.83234 285.009 0.00976562 283.047L2.92868 277.573C3.94981 278.477 4.95168 279.141 5.95355 279.584C6.94579 280.026 7.92839 280.238 8.90136 280.238C10.0092 280.238 10.8377 279.988 11.3868 279.478C11.9262 278.968 12.2056 278.391 12.2056 277.746C12.2056 277.352 12.1382 277.015 11.9937 276.727C11.8588 276.438 11.6276 276.169 11.3001 275.928C10.9725 275.688 10.5583 275.457 10.0285 275.255C9.50827 275.043 8.87246 274.812 8.14033 274.562C7.26369 274.283 6.39669 273.976 5.55858 273.648C4.71085 273.312 3.95945 272.869 3.30438 272.311C2.64931 271.753 2.10984 271.061 1.70524 270.214C1.30064 269.368 1.09834 268.3 1.09834 267.011C1.09834 265.722 1.31027 264.548 1.74377 263.49C2.16764 262.442 2.77454 261.537 3.54521 260.787C4.31588 260.037 5.26958 259.45 6.38705 259.036C7.50453 258.623 8.7665 258.411 10.1537 258.411C11.4446 258.411 12.8029 258.594 14.219 258.95C15.6351 259.306 16.9838 259.835 18.2843 260.527L15.5773 265.828H15.5484Z" fill="white"/>
<path d="M43.1284 267.867C41.5581 265.953 39.6122 264.991 37.3002 264.991C36.279 264.991 35.335 265.174 34.468 265.549C33.601 265.914 32.8496 266.424 32.233 267.059C31.6068 267.694 31.1155 268.454 30.7591 269.329C30.4027 270.205 30.2196 271.157 30.2196 272.167C30.2196 273.177 30.4027 274.168 30.7591 275.043C31.1155 275.919 31.6165 276.688 32.2523 277.333C32.8881 277.977 33.6395 278.487 34.4872 278.862C35.3446 279.228 36.2694 279.42 37.2616 279.42C39.4388 279.42 41.3944 278.497 43.1284 276.65V284.692L42.4348 284.932C41.3944 285.298 40.4214 285.577 39.5158 285.75C38.6103 285.923 37.724 286.01 36.8474 286.01C35.046 286.01 33.312 285.673 31.655 284.99C29.9981 284.307 28.5434 283.345 27.2815 282.114C26.0195 280.882 25.008 279.411 24.247 277.708C23.4859 276.005 23.1006 274.158 23.1006 272.148C23.1006 270.137 23.4763 268.29 24.2277 266.617C24.9791 264.943 25.9906 263.5 27.2429 262.288C28.5049 261.076 29.9692 260.123 31.6357 259.45C33.3023 258.767 35.046 258.43 36.8763 258.43C37.9167 258.43 38.9378 258.536 39.9493 258.757C40.9512 258.979 42.0109 259.315 43.1284 259.777V267.886V267.867Z" fill="white"/>
<path d="M62.954 275.563L59.9002 266.867L56.8464 275.563H62.954ZM64.7651 280.728H55.045L53.4844 285.269H46.2305L56.1914 259.133H63.6187L73.5796 285.269H66.3257L64.7651 280.728Z" fill="white"/>
<path d="M76.4696 285.269L80.9106 259.133H87.6443L92.8848 273.071L98.0869 259.133H104.821L109.262 285.269H102.489L100.235 270.224L94.0601 285.269H91.3531L85.4864 270.224L83.2322 285.269H76.46H76.4696Z" fill="white"/>
<g opacity="0.7">
<path d="M128.567 275.563L125.513 266.867L122.46 275.563H128.567ZM130.369 280.728H120.649L119.088 285.269H111.834L121.795 259.133H129.222L139.183 285.269H131.929L130.369 280.728Z" fill="white"/>
</g>
<g opacity="0.7">
<path d="M149.057 279.516H150.617C151.802 279.516 152.852 279.334 153.777 278.958C154.702 278.593 155.482 278.083 156.118 277.429C156.754 276.784 157.235 276.015 157.573 275.12C157.91 274.235 158.074 273.254 158.074 272.196C158.074 271.138 157.9 270.185 157.553 269.281C157.207 268.377 156.715 267.607 156.079 266.963C155.444 266.318 154.663 265.808 153.739 265.433C152.814 265.068 151.773 264.875 150.617 264.875H149.057V279.507V279.516ZM142.246 259.132H152.313C154.095 259.132 155.771 259.488 157.332 260.21C158.892 260.922 160.26 261.884 161.426 263.067C162.592 264.26 163.516 265.645 164.181 267.223C164.855 268.81 165.183 270.464 165.183 272.196C165.183 273.927 164.855 275.553 164.191 277.131C163.536 278.718 162.621 280.103 161.445 281.306C160.28 282.508 158.912 283.47 157.351 284.182C155.79 284.894 154.105 285.259 152.303 285.259H142.236V259.123L142.246 259.132Z" fill="white"/>
</g>
<g opacity="0.7">
<path d="M172.38 259.133L178.699 275.043L185.048 259.133H192.446L181.406 285.269H175.993L164.991 259.133H172.39H172.38Z" fill="white"/>
</g>
<path opacity="0.7" d="M202.224 285.269H195.423V259.133H202.224V285.269Z" fill="white"/>
<g opacity="0.7">
<path d="M222.164 265.828C221.423 265.231 220.681 264.779 219.939 264.491C219.197 264.202 218.485 264.058 217.791 264.058C216.914 264.058 216.192 264.269 215.643 264.683C215.084 265.097 214.814 265.645 214.814 266.309C214.814 266.77 214.949 267.155 215.228 267.453C215.508 267.752 215.874 268.011 216.317 268.233C216.77 268.454 217.28 268.646 217.849 268.8C218.417 268.964 218.976 269.137 219.535 269.32C221.76 270.06 223.378 271.051 224.409 272.282C225.44 273.523 225.95 275.13 225.95 277.121C225.95 278.458 225.729 279.67 225.276 280.757C224.823 281.844 224.168 282.777 223.301 283.547C222.434 284.326 221.365 284.923 220.103 285.346C218.841 285.769 217.415 285.99 215.816 285.99C212.502 285.99 209.439 285.009 206.616 283.047L209.535 277.573C210.556 278.477 211.558 279.141 212.56 279.584C213.552 280.026 214.535 280.238 215.508 280.238C216.616 280.238 217.444 279.988 217.993 279.478C218.533 278.968 218.812 278.391 218.812 277.746C218.812 277.352 218.745 277.015 218.6 276.727C218.465 276.438 218.234 276.169 217.907 275.928C217.579 275.688 217.165 275.457 216.635 275.255C216.115 275.043 215.479 274.812 214.747 274.562C213.87 274.283 213.003 273.976 212.165 273.648C211.317 273.312 210.566 272.869 209.911 272.311C209.256 271.753 208.716 271.061 208.312 270.214C207.907 269.368 207.705 268.3 207.705 267.011C207.705 265.722 207.917 264.548 208.35 263.49C208.774 262.442 209.381 261.537 210.152 260.787C210.922 260.037 211.876 259.45 212.994 259.036C214.111 258.623 215.373 258.411 216.76 258.411C218.051 258.411 219.409 258.594 220.825 258.95C222.242 259.306 223.59 259.835 224.891 260.527L222.184 265.828H222.164Z" fill="white"/>
</g>
<g opacity="0.7">
<path d="M245.671 264.885H237.578V269.252H245.218V275.005H237.578V279.507H245.671V285.259H230.777V259.123H245.671V264.875V264.885Z" fill="white"/>
</g>
<g opacity="0.7">
<path d="M258.039 270.82H259.321C260.66 270.82 261.69 270.541 262.413 269.993C263.126 269.435 263.492 268.637 263.492 267.598C263.492 266.559 263.135 265.76 262.413 265.202C261.7 264.645 260.669 264.375 259.321 264.375H258.039V270.82ZM273 285.269H264.532L258.039 275.216V285.269H251.238V259.133H261.825C263.28 259.133 264.552 259.344 265.64 259.777C266.729 260.2 267.625 260.787 268.328 261.528C269.031 262.268 269.561 263.125 269.927 264.096C270.283 265.068 270.467 266.107 270.467 267.213C270.467 269.204 269.985 270.811 269.021 272.052C268.058 273.293 266.642 274.129 264.773 274.562L273 285.269Z" fill="white"/>
</g>
</g>
<defs>
<clipPath id="clip0_2591_2004">
<rect width="273" height="286" fill="white"/>
</clipPath>
</defs>
</svg>
